# xmcd CD database file
#
# Track frame offsets:
#	150
#	22710
#	48021
#	75645
#	95218
#	118146
#	138878
#	168391
#	192449
#	215137
#	240997
#	264641
#	287620
#
# Disc length: 4366 seconds
#
# Revision: 0
# Processed by: cddbd v1.5.2PL0 Copyright (c) Steve Scherf et al.
# Submitted via: CDex 1.70beta2
#
DISCID=b1110c0d
DTITLE=Blue Heat feat. Diana Laden - Start and Run
DYEAR=2012
DGENRE=Blues
TTITLE0=Cissy Strut [The Meters]
TTITLE1=Senor Blues [Horace Silver]
TTITLE2=Do Your Thing [Isaac Hayes]
TTITLE3=Sudden Samba [Isaac Hayes]
TTITLE4=Who's Been Talkin' [Howlin' Wolf]
TTITLE5=Congo Square [Sonny Landreth]
TTITLE6=Sugar [Stanley Turrentine]
TTITLE7=Stoop Down [Popa Chubby]
TTITLE8=Work Song [Nat Adderley]
TTITLE9=Ain't No Sunshine [Bill Withers]
TTITLE10=The Chicken [Alfred "Pee-Wee" Ellis]
TTITLE11=Feel So Bad [Chuck Willis]
TTITLE12=10th Avenue Tango [Robben Ford]
EXTD=YEAR: 2012
EXTT0=
EXTT1=
EXTT2=
EXTT3=
EXTT4=
EXTT5=
EXTT6=
EXTT7=
EXTT8=
EXTT9=
EXTT10=
EXTT11=
EXTT12=
PLAYORDER=
